<svg version="1" xmlns="http://www.w3.org/2000/svg" width="346.667" height="346.667" viewBox="0 0 260.000000 260.000000"><path d="M115 .7c-29.1 4.4-51.9 14.9-72 33C14.4 59.4-.4 94.1.5 133c.2 8 .6 15.8 1 17.5 2.1 10.1 2.8 12.8 5.1 20 7.3 23.1 20.6 41.9 44.9 63.6 14.1 12.5 41.5 23.9 60 25 15.1.8 35.5.1 43.4-1.5 34.9-7.4 64-26.8 83.3-55.8 9.2-13.8 17.3-33.5 19.4-47.3.3-2.2.9-6 1.4-8.5.9-5 .6-29.1-.5-36-1.1-7-5.5-23.4-6.6-24.5-.5-.5-.9-1.6-.9-2.5-.1-2.3-8.1-17.8-13.6-26.1-6.1-9.3-24.7-28-33.9-34.1-13.5-9-31.8-16.9-45.5-19.7-3-.6-6.8-1.3-8.5-1.7C146 .7 118.6.2 115 .7z"/></svg>