<?xml version="1.0" encoding="UTF-8" standalone="no"?>
<!-- Created with Inkscape (http://www.inkscape.org/) -->

<svg
   xmlns:dc="http://purl.org/dc/elements/1.1/"
   xmlns:cc="http://creativecommons.org/ns#"
   xmlns:rdf="http://www.w3.org/1999/02/22-rdf-syntax-ns#"
   xmlns:svg="http://www.w3.org/2000/svg"
   xmlns="http://www.w3.org/2000/svg"
   xmlns:sodipodi="http://sodipodi.sourceforge.net/DTD/sodipodi-0.dtd"
   xmlns:inkscape="http://www.inkscape.org/namespaces/inkscape"
   width="366.09375"
   height="386.0625"
   id="svg2"
   version="1.1"
   inkscape:version="0.48.3.1 r9886"
   sodipodi:docname="wpicon.svg">
  <defs
     id="defs4">
    <inkscape:perspective
       sodipodi:type="inkscape:persp3d"
       inkscape:vp_x="0 : 526.18109 : 1"
       inkscape:vp_y="0 : 1000 : 0"
       inkscape:vp_z="744.09448 : 526.18109 : 1"
       inkscape:persp3d-origin="372.04724 : 350.78739 : 1"
       id="perspective2985" />
  </defs>
  <sodipodi:namedview
     id="base"
     pagecolor="#ffffff"
     bordercolor="#666666"
     borderopacity="1.0"
     inkscape:pageopacity="0.0"
     inkscape:pageshadow="2"
     inkscape:zoom="0.98994949"
     inkscape:cx="70.150033"
     inkscape:cy="152.598"
     inkscape:document-units="px"
     inkscape:current-layer="layer1"
     showgrid="false"
     inkscape:window-width="1865"
     inkscape:window-height="1176"
     inkscape:window-x="1255"
     inkscape:window-y="24"
     inkscape:window-maximized="1"
     fit-margin-top="10"
     fit-margin-left="10"
     fit-margin-right="10"
     fit-margin-bottom="10" />
  <metadata
     id="metadata7">
    <rdf:RDF>
      <cc:Work
         rdf:about="">
        <dc:format>image/svg+xml</dc:format>
        <dc:type
           rdf:resource="http://purl.org/dc/dcmitype/StillImage" />
        <dc:title></dc:title>
      </cc:Work>
    </rdf:RDF>
  </metadata>
  <g
     inkscape:label="Layer 1"
     inkscape:groupmode="layer"
     id="layer1"
     transform="translate(-121.50728,-298.89768)">
    <path
       style="fill:#222222;fill-opacity:1;stroke:none"
       d="m 131.50728,308.89768 20,306.0625 153.0625,60 153.03125,-60 20,-306.0625 -346.09375,0 z m 74.28125,35.53125 87,0 c 38.42198,2.5e-4 66.45321,7.35343 84.09375,22.09375 17.64013,14.74079 26.43727,37.46706 26.4375,68.15625 -2.3e-4,30.68952 -9.03282,53.14909 -27.15625,67.40625 -17.88219,14.25735 -45.44251,21.40632 -82.65625,21.40625 l -44.9375,0 0,74.3125 -42.78125,0 0,-253.375 z m 42.78125,38.78125 0,101.5 49.65625,0 c 23.68142,1.1e-4 39.72963,-4.46513 48.1875,-13.40625 8.69917,-9.18251 13.06231,-22.47614 13.0625,-39.875 -1.9e-4,-17.64017 -5.43849,-30.09409 -16.3125,-37.34375 -10.87435,-7.24925 -27.89562,-10.87479 -51.09375,-10.875 l -43.5,0 z"
       id="rect3001"
       inkscape:connector-curvature="0"
       inkscape:export-xdpi="4.9171929"
       inkscape:export-ydpi="4.9171929" />
  </g>
</svg>
