<?xml version="1.0" encoding="UTF-8" standalone="no"?>
<!-- Created with Inkscape (http://www.inkscape.org/) -->

<svg
   xmlns:dc="http://purl.org/dc/elements/1.1/"
   xmlns:cc="http://creativecommons.org/ns#"
   xmlns:rdf="http://www.w3.org/1999/02/22-rdf-syntax-ns#"
   xmlns:svg="http://www.w3.org/2000/svg"
   xmlns="http://www.w3.org/2000/svg"
   xmlns:sodipodi="http://sodipodi.sourceforge.net/DTD/sodipodi-0.dtd"
   xmlns:inkscape="http://www.inkscape.org/namespaces/inkscape"
   width="65.356033mm"
   height="22.388517mm"
   viewBox="0 0 231.5765 79.329392"
   id="svg4980"
   version="1.1"
   inkscape:version="0.91 r13725"
   sodipodi:docname="logo-v3-3.svg">
  <defs
     id="defs4982" />
  <sodipodi:namedview
     id="base"
     pagecolor="#ffffff"
     bordercolor="#666666"
     borderopacity="1.0"
     inkscape:pageopacity="0.0"
     inkscape:pageshadow="2"
     inkscape:zoom="0.35"
     inkscape:cx="-571.259"
     inkscape:cy="33.483591"
     inkscape:document-units="px"
     inkscape:current-layer="layer1"
     showgrid="false"
     fit-margin-top="0"
     fit-margin-left="0"
     fit-margin-right="0"
     fit-margin-bottom="0"
     inkscape:window-width="1867"
     inkscape:window-height="1056"
     inkscape:window-x="53"
     inkscape:window-y="24"
     inkscape:window-maximized="1" />
  <metadata
     id="metadata4985">
    <rdf:RDF>
      <cc:Work
         rdf:about="">
        <dc:format>image/svg+xml</dc:format>
        <dc:type
           rdf:resource="http://purl.org/dc/dcmitype/StillImage" />
        <dc:title></dc:title>
      </cc:Work>
    </rdf:RDF>
  </metadata>
  <g
     inkscape:label="Layer 1"
     inkscape:groupmode="layer"
     id="layer1"
     transform="translate(-256.25899,-486.51641)">
    <g
       id="g4948"
       transform="translate(249.7147,-723.46984)"
       style="fill:#ffffff;fill-opacity:1">
      <g
         transform="translate(6.543785,99.817146)"
         id="g4950"
         style="fill:#ffffff;fill-opacity:1">
        <path
           inkscape:connector-curvature="0"
           style="font-weight:900;font-size:84.90699768px;font-family:Catamaran;-inkscape-font-specification:'Catamaran Heavy';letter-spacing:0;word-spacing:0;text-anchor:middle;fill:#ffffff;fill-opacity:1"
           d="m 219.23438,291.94141 0,0.008 c -2.03734,0 -4.04797,0.36826 -6.0293,1.10156 -1.92467,0.68 -3.7356,1.61223 -5.4336,2.79883 l -2.37695,-2.37305 -7.72656,0 0,67.68946 15.45312,-1.40625 0,-25.10157 c 1.698,0.56 3.50893,0.83985 5.4336,0.83985 6.67866,0 11.97028,-1.86752 15.87695,-5.60352 3.962,-3.792 5.94336,-9.28326 5.94336,-16.47265 0,-7.0753 -1.95209,-12.42418 -5.85742,-16.04688 -3.84933,-3.6226 -8.9432,-5.43359 -15.2832,-5.43359 z m -2.37696,11.88476 c 2.43333,0 4.30152,0.85023 5.60352,2.54883 1.302,1.6414 1.95312,4.01756 1.95312,7.13086 0,3.1134 -0.65112,5.57737 -1.95312,7.38867 -1.302,1.8114 -2.94445,2.7168 -4.92578,2.7168 -1.302,0 -2.77273,-0.36947 -4.41407,-1.10547 l 0,-17.4043 c 1.302,-0.8493 2.547,-1.27539 3.73633,-1.27539 z"
           transform="translate(-197.66746,828.33228)"
           id="path4952" />
        <path
           inkscape:connector-curvature="0"
           style="font-weight:900;font-size:84.90699768px;font-family:Catamaran;-inkscape-font-specification:'Catamaran Heavy';letter-spacing:0;word-spacing:0;text-anchor:middle;fill:#ffffff;fill-opacity:1"
           d="m 267.04688,291.93555 c -4.35801,0 -8.32006,0.87756 -11.88672,2.63086 -3.51067,1.7 -6.31292,4.21859 -8.40625,7.55859 -2.038,3.28 -3.05664,7.15756 -3.05664,11.63086 0,7.0734 2.09453,12.4807 6.2832,16.2207 4.24467,3.68 9.81989,5.51953 16.72656,5.51953 4.47133,0 8.48997,-0.82093 12.05664,-2.46093 3.62267,-1.6413 6.4529,-4.07409 8.49024,-7.30078 2.09533,-3.2266 3.14257,-7.07548 3.14257,-11.54688 l -0.004,-0.0195 c 0,-4.7546 -0.99133,-8.80258 -2.97266,-12.14258 -1.982,-3.34 -4.72575,-5.85543 -8.23242,-7.54883 -3.51133,-1.6933 -7.55863,-2.54101 -12.14062,-2.54101 z m 0.16992,12.57031 c 2.26466,0 4.02029,0.90745 5.26562,2.71875 1.30133,1.8114 1.95117,4.13229 1.95117,6.96289 0,2.8867 -0.64984,5.06581 -1.95117,6.53711 -1.30267,1.472 -3.17213,2.20703 -5.60547,2.20703 -2.32,0 -4.10294,-0.81954 -5.34961,-2.46094 -1.24666,-1.642 -1.87109,-3.87898 -1.87109,-6.70898 0,-2.8866 0.65117,-5.15097 1.95117,-6.79297 1.36,-1.6413 3.22938,-2.46289 5.60938,-2.46289 z"
           transform="translate(-197.66746,828.33228)"
           id="path4954" />
        <path
           inkscape:connector-curvature="0"
           style="font-weight:900;font-size:84.90699768px;font-family:Catamaran;-inkscape-font-specification:'Catamaran Heavy';letter-spacing:0;word-spacing:0;text-anchor:middle;fill:#ffffff;fill-opacity:1"
           d="m 114.112,1135.2171 c 1.35867,-0.6226 2.85867,-1.1606 4.5,-1.614 1.64133,-0.5093 2.91467,-0.764 3.82,-0.764 1.58533,0 2.71767,0.4814 3.397,1.444 0.67333,0.9054 1.01,2.0654 1.01,3.48 l 0,25.133 15.46,0 0,-26.577 c 0,-4.8106 -1.24667,-8.6593 -3.74,-11.546 -2.49333,-2.9433 -6.23,-4.415 -11.21,-4.415 -5.20667,0 -10.81,1.8667 -16.81,5.6 l -2.72,-4.25 -9.17,0 0,41.18 15.45,0 0,-27.679 z"
           id="path4956" />
        <path
           inkscape:connector-curvature="0"
           style="font-weight:900;font-size:84.90699768px;font-family:Catamaran;-inkscape-font-specification:'Catamaran Heavy';letter-spacing:0;word-spacing:0;text-anchor:middle;fill:#ffffff;fill-opacity:1"
           d="m 168.824,1110.1691 -15.454,2.123 0,11.122 -6.367,0 0,12.142 6.368,0 0,11.887 c 0,3.5094 0.88,6.5094 2.64,9 1.81333,2.4334 4.19,4.2734 7.13,5.52 2.94667,1.2447 6.11667,1.867 9.51,1.867 1.92667,0 4.02333,-0.3666 6.29,-1.1 2.32,-0.7933 4.02,-1.64 5.1,-2.54 l -4.42,-10.52 c -1.92267,1.0767 -3.90267,1.615 -5.94,1.615 -1.47133,0 -2.65967,-0.4813 -3.565,-1.444 -0.84933,-1.02 -1.274,-2.3786 -1.274,-4.076 l 0,-10.2 12.223,0 -1.44,-12.14 -10.79,0 0,-13.256 z"
           id="path4958" />
        <path
           inkscape:connector-curvature="0"
           style="font-weight:900;font-size:84.90699768px;font-family:Catamaran;-inkscape-font-specification:'Catamaran Heavy';letter-spacing:0;word-spacing:0;text-anchor:middle;fill:#ffffff;fill-opacity:1"
           d="m 200.076,1163.0661 c -0.396,1.0754 -2.79013,9.2482 -5.396,11.057 -2.60587,1.8089 -2.99355,1.981 -7.132,3.396 l 5.18,11.972 c 4.34165,-1.1115 8.07233,-2.2895 11.547,-5.095 3.47467,-2.8055 7.915,-13.3773 9.217,-16.66 l 18.085,-46.02 -15.367,0 -7.898,23.265 -8.405,-24.793 -14.265,4.07 14.774,37.87 -0.34,0.93 z"
           id="path4960" />
        <path
           inkscape:export-ydpi="248.73"
           inkscape:export-xdpi="248.73"
           inkscape:export-filename="/home/karloskar/Skrivbord/logo-scribble.png"
           sodipodi:nodetypes="sccsccs"
           inkscape:connector-curvature="0"
           id="path4962"
           d="m 104.63672,1171.7891 c -41.101323,-0.407 -78.049211,3.3183 -78.049211,3.3183 l 0.0054,11.9414 c 0,0 37.621215,-3.6588 77.924691,-3.2597 40.21262,0.3981 73.68072,5.6611 73.68072,5.6611 l -4.6827,-11.8821 c 0,0 -27.68672,-5.3712 -68.8789,-5.779 z"
           style="color:#000000;font-style:normal;font-variant:normal;font-weight:normal;font-stretch:normal;font-size:medium;line-height:normal;font-family:sans-serif;text-indent:0;text-align:start;text-decoration:none;text-decoration-line:none;text-decoration-style:solid;text-decoration-color:#000000;letter-spacing:normal;word-spacing:normal;text-transform:none;direction:ltr;block-progression:tb;writing-mode:lr-tb;baseline-shift:baseline;text-anchor:start;white-space:normal;clip-rule:nonzero;display:inline;overflow:visible;visibility:visible;opacity:1;isolation:auto;mix-blend-mode:normal;color-interpolation:sRGB;color-interpolation-filters:linearRGB;solid-color:#000000;solid-opacity:1;fill:#ffffff;fill-opacity:1;fill-rule:evenodd;stroke:none;stroke-width:12;stroke-linecap:butt;stroke-linejoin:miter;stroke-miterlimit:4;stroke-dasharray:none;stroke-dashoffset:0;stroke-opacity:1;color-rendering:auto;image-rendering:auto;shape-rendering:auto;text-rendering:auto;enable-background:accumulate" />
      </g>
    </g>
  </g>
</svg>
